MutatorSansInstance_400-1000.ufo
<glyph name="comma" format="2">
  <advance width="299"/>
  <unicode hex="002C"/>
  <outline>
    <contour>
      <point x="203" y="0" type="line"/>
      <point x="203" y="252" type="line"/>
      <point x="97" y="252" type="line"/>
      <point x="97" y="0" type="line"/>
      <point x="147" y="-11" type="line"/>
      <point x="138" y="12" type="line"/>
      <point x="116" y="-113" type="line"/>
      <point x="152" y="-115" type="line"/>
    </contour>
  </outline>
</glyph>
<glyph name="period" format="2">
  <advance width="298"/>
  <unicode hex="002E"/>
  <outline>
    <contour>
      <point x="96" y="0" type="line"/>
      <point x="202" y="0" type="line"/>
      <point x="202" y="252" type="line"/>
      <point x="96" y="252" type="line"/>
    </contour>
  </outline>
</glyph>
<glyph name="A" format="2">
  <advance width="1236"/>
  <unicode hex="0041"/>
  <outline>
    <contour>
      <point x="44" y="0" type="line"/>
      <point x="204" y="0" type="line"/>
      <point x="629" y="740" type="line"/>
      <point x="492" y="740" type="line"/>
    </contour>
    <contour>
      <point x="237" y="182" type="line"/>
      <point x="949" y="182" type="line"/>
      <point x="949" y="288" type="line"/>
      <point x="237" y="288" type="line"/>
    </contour>
    <contour>
      <point x="978" y="0" type="line"/>
      <point x="1198" y="0" type="line"/>
      <point x="750" y="740" type="line"/>
      <point x="541" y="740" type="line"/>
    </contour>
    <contour>
      <point x="512" y="614" type="line"/>
      <point x="710" y="614" type="line"/>
      <point x="710" y="740" type="line"/>
      <point x="512" y="740" type="line"/>
    </contour>
  </outline>
</glyph>
<glyph name="B" format="2">
  <advance width="1224"/>
  <unicode hex="0042"/>
  <outline>
    <contour>
      <point x="96" y="0" type="line"/>
      <point x="288" y="0" type="line"/>
      <point x="288" y="740" type="line"/>
      <point x="96" y="740" type="line"/>
    </contour>
    <contour>
      <point x="264" y="335" type="line"/>
      <point x="841" y="335" type="line" smooth="yes"/>
      <point x="929" y="335"/>
      <point x="975" y="293"/>
      <point x="975" y="224" type="curve" smooth="yes"/>
      <point x="975" y="157"/>
      <point x="929" y="117"/>
      <point x="841" y="117" type="curve" smooth="yes"/>
      <point x="264" y="117" type="line"/>
      <point x="264" y="0" type="line"/>
      <point x="904" y="0" type="line" smooth="yes"/>
      <point x="1102" y="0"/>
      <point x="1168" y="87"/>
      <point x="1168" y="202" type="curve" smooth="yes"/>
      <point x="1168" y="306"/>
      <point x="1108" y="375"/>
      <point x="996" y="391" type="curve"/>
      <point x="972" y="358" type="line"/>
      <point x="1060" y="379"/>
      <point x="1120" y="441"/>
      <point x="1120" y="535" type="curve" smooth="yes"/>
      <point x="1120" y="655"/>
      <point x="1046" y="740"/>
      <point x="844" y="740" type="curve" smooth="yes"/>
      <point x="264" y="740" type="line"/>
      <point x="264" y="628" type="line"/>
      <point x="789" y="628" type="line" smooth="yes"/>
      <point x="881" y="628"/>
      <point x="927" y="588"/>
      <point x="927" y="521" type="curve" smooth="yes"/>
      <point x="927" y="449"/>
      <point x="881" y="413"/>
      <point x="789" y="413" type="curve" smooth="yes"/>
      <point x="264" y="413" type="line"/>
    </contour>
  </outline>
</glyph>
<glyph name="C" format="2">
  <advance width="1331"/>
  <unicode hex="0043"/>
  <outline>
    <contour>
      <point x="1072" y="311" type="line"/>
      <point x="1042" y="176"/>
      <point x="905" y="117"/>
      <point x="703" y="117" type="curve" smooth="yes"/>
      <point x="636" y="117" type="line" smooth="yes"/>
      <point x="406" y="117"/>
      <point x="261" y="194"/>
      <point x="261" y="372" type="curve" smooth="yes"/>
      <point x="261" y="549"/>
      <point x="406" y="623"/>
      <point x="636" y="623" type="curve" smooth="yes"/>
      <point x="703" y="623" type="line" smooth="yes"/>
      <point x="904" y="623"/>
      <point x="1040" y="567"/>
      <point x="1072" y="437" type="curve"/>
      <point x="1266" y="457" type="line"/>
      <point x="1223" y="655"/>
      <point x="1022" y="750"/>
      <point x="724" y="750" type="curve" smooth="yes"/>
      <point x="614" y="750" type="line" smooth="yes"/>
      <point x="276" y="750"/>
      <point x="64" y="629"/>
      <point x="64" y="372" type="curve" smooth="yes"/>
      <point x="64" y="114"/>
      <point x="276" y="-10"/>
      <point x="614" y="-10" type="curve" smooth="yes"/>
      <point x="724" y="-10" type="line" smooth="yes"/>
      <point x="1024" y="-10"/>
      <point x="1226" y="88"/>
      <point x="1267" y="291" type="curve"/>
    </contour>
  </outline>
</glyph>
<glyph name="D" format="2">
  <advance width="1209"/>
  <unicode hex="0044"/>
  <outline>
    <contour>
      <point x="96" y="0" type="line"/>
      <point x="288" y="0" type="line"/>
      <point x="288" y="740" type="line"/>
      <point x="96" y="740" type="line"/>
    </contour>
    <contour>
      <point x="256" y="617" type="line"/>
      <point x="573" y="617" type="line" smooth="yes"/>
      <point x="803" y="617"/>
      <point x="949" y="549"/>
      <point x="949" y="372" type="curve" smooth="yes"/>
      <point x="949" y="194"/>
      <point x="803" y="123"/>
      <point x="573" y="123" type="curve" smooth="yes"/>
      <point x="256" y="123" type="line"/>
      <point x="256" y="0" type="line"/>
      <point x="594" y="0" type="line" smooth="yes"/>
      <point x="932" y="0"/>
      <point x="1145" y="114"/>
      <point x="1145" y="372" type="curve" smooth="yes"/>
      <point x="1145" y="629"/>
      <point x="932" y="740"/>
      <point x="594" y="740" type="curve" smooth="yes"/>
      <point x="256" y="740" type="line"/>
    </contour>
  </outline>
</glyph>
<glyph name="E" format="2">
  <advance width="1144"/>
  <unicode hex="0045"/>
  <anchor x="552" y="784" name="top"/>
  <outline>
    <contour>
      <point x="96" y="0" type="line"/>
      <point x="288" y="0" type="line"/>
      <point x="288" y="740" type="line"/>
      <point x="96" y="740" type="line"/>
    </contour>
    <contour>
      <point x="144" y="610" type="line"/>
      <point x="1048" y="610" type="line"/>
      <point x="1048" y="740" type="line"/>
      <point x="144" y="740" type="line"/>
    </contour>
    <contour>
      <point x="144" y="0" type="line"/>
      <point x="1048" y="0" type="line"/>
      <point x="1048" y="130" type="line"/>
      <point x="144" y="130" type="line"/>
    </contour>
    <contour>
      <point x="144" y="326" type="line"/>
      <point x="890" y="326" type="line"/>
      <point x="890" y="416" type="line"/>
      <point x="144" y="416" type="line"/>
    </contour>
  </outline>
</glyph>
<glyph name="F" format="2">
  <advance width="1174"/>
  <unicode hex="0046"/>
  <outline>
    <contour>
      <point x="96" y="0" type="line"/>
      <point x="288" y="0" type="line"/>
      <point x="288" y="740" type="line"/>
      <point x="96" y="740" type="line"/>
    </contour>
    <contour>
      <point x="144" y="610" type="line"/>
      <point x="1078" y="610" type="line"/>
      <point x="1078" y="740" type="line"/>
      <point x="144" y="740" type="line"/>
    </contour>
    <contour>
      <point x="144" y="270" type="line"/>
      <point x="1020" y="270" type="line"/>
      <point x="1020" y="384" type="line"/>
      <point x="144" y="384" type="line"/>
    </contour>
  </outline>
</glyph>
<glyph name="G" format="2">
  <advance width="1387"/>
  <unicode hex="0047"/>
  <outline>
    <contour>
      <point x="538" y="306" type="line"/>
      <point x="1100" y="306" type="line"/>
      <point x="1100" y="216" type="line"/>
      <point x="1191" y="0" type="line"/>
      <point x="1300" y="0" type="line"/>
      <point x="1300" y="366" type="line"/>
      <point x="538" y="366" type="line"/>
    </contour>
    <contour>
      <point x="1102" y="315" type="line"/>
      <point x="1072" y="180"/>
      <point x="935" y="117"/>
      <point x="733" y="117" type="curve" smooth="yes"/>
      <point x="636" y="117" type="line" smooth="yes"/>
      <point x="406" y="117"/>
      <point x="261" y="194"/>
      <point x="261" y="372" type="curve" smooth="yes"/>
      <point x="261" y="549"/>
      <point x="406" y="623"/>
      <point x="636" y="623" type="curve" smooth="yes"/>
      <point x="733" y="623" type="line" smooth="yes"/>
      <point x="934" y="623"/>
      <point x="1070" y="567"/>
      <point x="1102" y="437" type="curve"/>
      <point x="1296" y="457" type="line"/>
      <point x="1253" y="655"/>
      <point x="1052" y="750"/>
      <point x="754" y="750" type="curve" smooth="yes"/>
      <point x="614" y="750" type="line" smooth="yes"/>
      <point x="276" y="750"/>
      <point x="64" y="629"/>
      <point x="64" y="372" type="curve" smooth="yes"/>
      <point x="64" y="114"/>
      <point x="276" y="-10"/>
      <point x="614" y="-10" type="curve" smooth="yes"/>
      <point x="682" y="-10" type="line" smooth="yes"/>
      <point x="982" y="-10"/>
      <point x="1178" y="92"/>
      <point x="1219" y="295" type="curve"/>
    </contour>
  </outline>
</glyph>
<glyph name="H" format="2">
  <advance width="1228"/>
  <unicode hex="0048"/>
  <outline>
    <contour>
      <point x="96" y="0" type="line"/>
      <point x="288" y="0" type="line"/>
      <point x="288" y="740" type="line"/>
      <point x="96" y="740" type="line"/>
    </contour>
    <contour>
      <point x="178" y="308" type="line"/>
      <point x="1054" y="308" type="line"/>
      <point x="1054" y="434" type="line"/>
      <point x="178" y="434" type="line"/>
    </contour>
    <contour>
      <point x="940" y="0" type="line"/>
      <point x="1132" y="0" type="line"/>
      <point x="1132" y="740" type="line"/>
      <point x="940" y="740" type="line"/>
    </contour>
  </outline>
</glyph>
<glyph name="I" format="2">
  <advance width="966"/>
  <unicode hex="0049"/>
  <outline>
    <contour>
      <point x="390" y="0" type="line"/>
      <point x="582" y="0" type="line"/>
      <point x="582" y="740" type="line"/>
      <point x="390" y="740" type="line"/>
    </contour>
    <contour>
      <point x="96" y="610" type="line"/>
      <point x="870" y="610" type="line"/>
      <point x="870" y="740" type="line"/>
      <point x="96" y="740" type="line"/>
    </contour>
    <contour>
      <point x="96" y="0" type="line"/>
      <point x="870" y="0" type="line"/>
      <point x="870" y="130" type="line"/>
      <point x="96" y="130" type="line"/>
    </contour>
  </outline>
</glyph>
<glyph name="J" format="2">
  <advance width="881"/>
  <unicode hex="004A"/>
  <outline>
    <contour>
      <point x="261" y="-10" type="curve" smooth="yes"/>
      <point x="583" y="-10"/>
      <point x="785" y="118"/>
      <point x="785" y="384" type="curve" smooth="yes"/>
      <point x="785" y="740" type="line"/>
      <point x="589" y="740" type="line"/>
      <point x="589" y="396" type="line" smooth="yes"/>
      <point x="589" y="209"/>
      <point x="462" y="129"/>
      <point x="261" y="129" type="curve" smooth="yes"/>
      <point x="219" y="129"/>
      <point x="169" y="133"/>
      <point x="121" y="142" type="curve"/>
      <point x="96" y="3" type="line"/>
      <point x="147" y="-6"/>
      <point x="202" y="-10"/>
    </contour>
  </outline>
</glyph>
<glyph name="K" format="2">
  <advance width="1138"/>
  <unicode hex="004B"/>
  <outline>
    <contour>
      <point x="96" y="0" type="line"/>
      <point x="288" y="0" type="line"/>
      <point x="288" y="740" type="line"/>
      <point x="96" y="740" type="line"/>
    </contour>
    <contour>
      <point x="210" y="302" type="line"/>
      <point x="330" y="302" type="line"/>
      <point x="814" y="0" type="line"/>
      <point x="1081" y="0" type="line"/>
      <point x="479" y="408" type="line"/>
      <point x="339" y="378" type="line"/>
      <point x="210" y="378" type="line"/>
    </contour>
    <contour>
      <point x="306" y="358" type="line"/>
      <point x="415" y="308" type="line"/>
      <point x="1075" y="740" type="line"/>
      <point x="843" y="740" type="line"/>
    </contour>
  </outline>
</glyph>
<glyph name="L" format="2">
  <advance width="1010"/>
  <unicode hex="004C"/>
  <outline>
    <contour>
      <point x="96" y="0" type="line"/>
      <point x="288" y="0" type="line"/>
      <point x="288" y="740" type="line"/>
      <point x="96" y="740" type="line"/>
    </contour>
    <contour>
      <point x="144" y="0" type="line"/>
      <point x="978" y="0" type="line"/>
      <point x="978" y="134" type="line"/>
      <point x="144" y="134" type="line"/>
    </contour>
  </outline>
</glyph>
<glyph name="M" format="2">
  <advance width="1284"/>
  <unicode hex="004D"/>
  <outline>
    <contour>
      <point x="96" y="0" type="line"/>
      <point x="248" y="0" type="line"/>
      <point x="248" y="740" type="line"/>
      <point x="96" y="740" type="line"/>
    </contour>
    <contour>
      <point x="1188" y="0" type="line"/>
      <point x="1188" y="740" type="line"/>
      <point x="1036" y="740" type="line"/>
      <point x="1036" y="0" type="line"/>
    </contour>
    <contour>
      <point x="1093" y="560" type="line"/>
      <point x="1036" y="740" type="line"/>
      <point x="617" y="375" type="line"/>
      <point x="666" y="375" type="line"/>
      <point x="248" y="740" type="line"/>
      <point x="191" y="560" type="line"/>
      <point x="605" y="199" type="line"/>
      <point x="678" y="199" type="line"/>
    </contour>
  </outline>
</glyph>
<glyph name="N" format="2">
  <advance width="1242"/>
  <unicode hex="004E"/>
  <outline>
    <contour>
      <point x="96" y="0" type="line"/>
      <point x="248" y="0" type="line"/>
      <point x="248" y="740" type="line"/>
      <point x="96" y="740" type="line"/>
    </contour>
    <contour>
      <point x="191" y="580" type="line"/>
      <point x="994" y="0" type="line"/>
      <point x="1051" y="161" type="line"/>
      <point x="248" y="740" type="line"/>
    </contour>
    <contour>
      <point x="994" y="0" type="line"/>
      <point x="1146" y="0" type="line"/>
      <point x="1146" y="740" type="line"/>
      <point x="994" y="740" type="line"/>
    </contour>
  </outline>
</glyph>
<glyph name="O" format="2">
  <advance width="1345"/>
  <unicode hex="004F"/>
  <outline>
    <contour>
      <point x="614" y="-10" type="curve" smooth="yes"/>
      <point x="730" y="-10" type="line" smooth="yes"/>
      <point x="1068" y="-10"/>
      <point x="1281" y="114"/>
      <point x="1281" y="372" type="curve" smooth="yes"/>
      <point x="1281" y="629"/>
      <point x="1068" y="750"/>
      <point x="730" y="750" type="curve" smooth="yes"/>
      <point x="614" y="750" type="line" smooth="yes"/>
      <point x="276" y="750"/>
      <point x="64" y="629"/>
      <point x="64" y="372" type="curve" smooth="yes"/>
      <point x="64" y="114"/>
      <point x="276" y="-10"/>
    </contour>
    <contour>
      <point x="636" y="117" type="line" smooth="yes"/>
      <point x="406" y="117"/>
      <point x="261" y="194"/>
      <point x="261" y="372" type="curve" smooth="yes"/>
      <point x="261" y="549"/>
      <point x="406" y="623"/>
      <point x="636" y="623" type="curve" smooth="yes"/>
      <point x="709" y="623" type="line" smooth="yes"/>
      <point x="939" y="623"/>
      <point x="1085" y="549"/>
      <point x="1085" y="372" type="curve" smooth="yes"/>
      <point x="1085" y="194"/>
      <point x="939" y="117"/>
      <point x="709" y="117" type="curve" smooth="yes"/>
    </contour>
  </outline>
</glyph>
<glyph name="P" format="2">
  <advance width="1148"/>
  <unicode hex="0050"/>
  <outline>
    <contour>
      <point x="96" y="0" type="line"/>
      <point x="288" y="0" type="line"/>
      <point x="288" y="740" type="line"/>
      <point x="96" y="740" type="line"/>
    </contour>
    <contour>
      <point x="208" y="601" type="line"/>
      <point x="669" y="601" type="line" smooth="yes"/>
      <point x="877" y="601"/>
      <point x="940" y="545"/>
      <point x="940" y="441" type="curve" smooth="yes"/>
      <point x="940" y="334"/>
      <point x="877" y="281"/>
      <point x="669" y="281" type="curve" smooth="yes"/>
      <point x="208" y="281" type="line"/>
      <point x="208" y="141" type="line"/>
      <point x="649" y="141" type="line" smooth="yes"/>
      <point x="1025" y="141"/>
      <point x="1116" y="260"/>
      <point x="1116" y="441" type="curve" smooth="yes"/>
      <point x="1116" y="623"/>
      <point x="1025" y="740"/>
      <point x="650" y="740" type="curve" smooth="yes"/>
      <point x="208" y="740" type="line"/>
    </contour>
  </outline>
</glyph>
<glyph name="Q" format="2">
  <advance width="1345"/>
  <unicode hex="0051"/>
  <outline>
    <contour>
      <point x="649" y="-130" type="line"/>
      <point x="843" y="-130" type="line"/>
      <point x="728" y="76" type="line"/>
      <point x="541" y="65" type="line"/>
    </contour>
    <component base="O"/>
  </outline>
</glyph>
<glyph name="R" format="2">
  <advance width="1184"/>
  <unicode hex="0052"/>
  <outline>
    <contour>
      <point x="888" y="0" type="line"/>
      <point x="1101" y="0" type="line"/>
      <point x="1000" y="92" type="line" smooth="yes"/>
      <point x="930" y="158"/>
      <point x="880" y="196"/>
      <point x="818" y="195" type="curve"/>
      <point x="690" y="195" type="line"/>
    </contour>
    <contour>
      <point x="96" y="0" type="line"/>
      <point x="288" y="0" type="line"/>
      <point x="288" y="740" type="line"/>
      <point x="96" y="740" type="line"/>
    </contour>
    <contour>
      <point x="208" y="601" type="line"/>
      <point x="675" y="601" type="line" smooth="yes"/>
      <point x="877" y="601"/>
      <point x="938" y="545"/>
      <point x="938" y="441" type="curve" smooth="yes"/>
      <point x="938" y="334"/>
      <point x="877" y="281"/>
      <point x="675" y="281" type="curve" smooth="yes"/>
      <point x="208" y="281" type="line"/>
      <point x="208" y="165" type="line"/>
      <point x="649" y="165" type="line" smooth="yes"/>
      <point x="1025" y="165"/>
      <point x="1116" y="280"/>
      <point x="1116" y="453" type="curve" smooth="yes"/>
      <point x="1116" y="627"/>
      <point x="1025" y="740"/>
      <point x="650" y="740" type="curve" smooth="yes"/>
      <point x="208" y="740" type="line"/>
    </contour>
  </outline>
</glyph>
<glyph name="S" format="2">
  <advance width="1203"/>
  <unicode hex="0053"/>
  <outline>
    <contour>
      <point x="1125" y="216" type="curve" smooth="yes"/>
      <point x="1125" y="375"/>
      <point x="1027" y="426"/>
      <point x="714" y="436" type="curve" smooth="yes"/>
      <point x="528" y="441" type="line" smooth="yes"/>
      <point x="348" y="447"/>
      <point x="260" y="464"/>
      <point x="260" y="532" type="curve" smooth="yes"/>
      <point x="260" y="594"/>
      <point x="338" y="630"/>
      <point x="534" y="630" type="curve" smooth="yes"/>
      <point x="634" y="630" type="line" smooth="yes"/>
      <point x="820" y="630"/>
      <point x="960" y="601"/>
      <point x="1065" y="564" type="curve"/>
      <point x="1092" y="677" type="line"/>
      <point x="983" y="717"/>
      <point x="814" y="749"/>
      <point x="654" y="749" type="curve" smooth="yes"/>
      <point x="586" y="749" type="line" smooth="yes"/>
      <point x="241" y="749"/>
      <point x="96" y="677"/>
      <point x="96" y="522" type="curve" smooth="yes"/>
      <point x="96" y="378"/>
      <point x="209" y="322"/>
      <point x="507" y="313" type="curve" smooth="yes"/>
      <point x="688" y="307" type="line" smooth="yes"/>
      <point x="875" y="301"/>
      <point x="956" y="290"/>
      <point x="956" y="217" type="curve" smooth="yes"/>
      <point x="956" y="146"/>
      <point x="872" y="110"/>
      <point x="640" y="110" type="curve" smooth="yes"/>
      <point x="545" y="110" type="line" smooth="yes"/>
      <point x="369" y="110"/>
      <point x="221" y="139"/>
      <point x="108" y="177" type="curve"/>
      <point x="83" y="63" type="line"/>
      <point x="203" y="22"/>
      <point x="378" y="-9"/>
      <point x="525" y="-9" type="curve" smooth="yes"/>
      <point x="601" y="-9" type="line" smooth="yes"/>
      <point x="987" y="-9"/>
      <point x="1125" y="75"/>
    </contour>
  </outline>
</glyph>
<glyph name="T" format="2">
  <advance width="1188"/>
  <unicode hex="0054"/>
  <outline>
    <contour>
      <point x="498" y="0" type="line"/>
      <point x="690" y="0" type="line"/>
      <point x="690" y="740" type="line"/>
      <point x="498" y="740" type="line"/>
    </contour>
    <contour>
      <point x="32" y="594" type="line"/>
      <point x="1156" y="594" type="line"/>
      <point x="1156" y="740" type="line"/>
      <point x="32" y="740" type="line"/>
    </contour>
  </outline>
</glyph>
<glyph name="U" format="2">
  <advance width="1239"/>
  <unicode hex="0055"/>
  <outline>
    <contour>
      <point x="619" y="-10" type="curve" smooth="yes"/>
      <point x="934" y="-10"/>
      <point x="1131" y="118"/>
      <point x="1131" y="384" type="curve" smooth="yes"/>
      <point x="1131" y="740" type="line"/>
      <point x="935" y="740" type="line"/>
      <point x="935" y="384" type="line" smooth="yes"/>
      <point x="935" y="206"/>
      <point x="813" y="129"/>
      <point x="620" y="129" type="curve" smooth="yes"/>
      <point x="427" y="129"/>
      <point x="305" y="206"/>
      <point x="305" y="384" type="curve" smooth="yes"/>
      <point x="305" y="740" type="line"/>
      <point x="108" y="740" type="line"/>
      <point x="108" y="384" type="line" smooth="yes"/>
      <point x="108" y="118"/>
      <point x="305" y="-10"/>
    </contour>
  </outline>
</glyph>
<glyph name="V" format="2">
  <advance width="1230"/>
  <unicode hex="0056"/>
  <outline>
    <contour>
      <point x="1198" y="740" type="line"/>
      <point x="1038" y="740" type="line"/>
      <point x="606" y="0" type="line"/>
      <point x="745" y="0" type="line"/>
    </contour>
    <contour>
      <point x="252" y="740" type="line"/>
      <point x="32" y="740" type="line"/>
      <point x="485" y="0" type="line"/>
      <point x="694" y="0" type="line"/>
    </contour>
    <contour>
      <point x="727" y="126" type="line"/>
      <point x="523" y="126" type="line"/>
      <point x="523" y="0" type="line"/>
      <point x="727" y="0" type="line"/>
    </contour>
  </outline>
</glyph>
<glyph name="W" format="2">
  <advance width="1368"/>
  <unicode hex="0057"/>
  <outline>
    <contour>
      <point x="1334" y="740" type="line"/>
      <point x="1158" y="740" type="line"/>
      <point x="950" y="145" type="line"/>
      <point x="967" y="145" type="line"/>
      <point x="754" y="740" type="line"/>
      <point x="628" y="740" type="line"/>
      <point x="426" y="139" type="line"/>
      <point x="446" y="139" type="line"/>
      <point x="231" y="740" type="line"/>
      <point x="32" y="740" type="line"/>
      <point x="294" y="0" type="line"/>
      <point x="482" y="0" type="line"/>
      <point x="686" y="581" type="line"/>
      <point x="650" y="581" type="line"/>
      <point x="874" y="0" type="line"/>
      <point x="1079" y="0" type="line"/>
    </contour>
  </outline>
</glyph>
<glyph name="X" format="2">
  <advance width="1124"/>
  <unicode hex="0058"/>
  <outline>
    <contour>
      <point x="860" y="0" type="line"/>
      <point x="1092" y="0" type="line"/>
      <point x="636" y="413" type="line"/>
      <point x="270" y="740" type="line"/>
      <point x="38" y="740" type="line"/>
      <point x="477" y="360" type="line"/>
    </contour>
    <contour>
      <point x="33" y="-1" type="line"/>
      <point x="242" y="0" type="line"/>
      <point x="576" y="339" type="line"/>
      <point x="633" y="338" type="line"/>
      <point x="1086" y="740" type="line"/>
      <point x="876" y="740" type="line"/>
      <point x="537" y="413" type="line"/>
      <point x="475" y="414" type="line"/>
    </contour>
  </outline>
</glyph>
<glyph name="Y" format="2">
  <advance width="1078"/>
  <unicode hex="0059"/>
  <outline>
    <contour>
      <point x="1052" y="740" type="line"/>
      <point x="882" y="740" type="line"/>
      <point x="510" y="204" type="line"/>
      <point x="630" y="187" type="line"/>
    </contour>
    <contour>
      <point x="228" y="740" type="line"/>
      <point x="26" y="740" type="line"/>
      <point x="447" y="187" type="line"/>
      <point x="616" y="204" type="line"/>
    </contour>
    <contour>
      <point x="635" y="279" type="line"/>
      <point x="443" y="279" type="line"/>
      <point x="443" y="0" type="line"/>
      <point x="635" y="0" type="line"/>
    </contour>
  </outline>
</glyph>
<glyph name="Z" format="2">
  <advance width="1232"/>
  <unicode hex="005A"/>
  <outline>
    <contour>
      <point x="96" y="134" type="line"/>
      <point x="325" y="82" type="line"/>
      <point x="1136" y="606" type="line"/>
      <point x="907" y="658" type="line"/>
    </contour>
    <contour>
      <point x="96" y="606" type="line"/>
      <point x="1136" y="606" type="line"/>
      <point x="1136" y="740" type="line"/>
      <point x="96" y="740" type="line"/>
    </contour>
    <contour>
      <point x="96" y="0" type="line"/>
      <point x="1136" y="0" type="line"/>
      <point x="1136" y="134" type="line"/>
      <point x="96" y="134" type="line"/>
    </contour>
  </outline>
</glyph>
